PathFileType	4	(X/Y/Z)	C:/Users/dbak576/Desktop/Duncan Bakke Modelling Files/Output/AB08/StaticAB08.trc	
DataRate	CameraRate	NumFrames	NumMarkers	Units	OrigDataRate	OrigDataStartFrame	OrigNumFrames	
200.00	200.00	9	42	mm	200.00	47	125	
Frame#	Time	LASI			RASI			LPSI			RPSI			LTH1			LTH2			LTH3			LTH4			LMFC			LLFC			LTB1			LTB2			LTB3			LTB4			LMMAL			LLMAL			LCAL			LToe			LMT1			LMT5			RTH1			RTH2			RTH3			RTH4			RMFC			RLFC			RTB1			RTB2			RTB3			RTB4			RMMAL			RLMAL			RCAL			RToe			RMT1			RMT5			C7			T10			LACR1			RACR1			CLAV			RBack			
		X1	Y1	Z1	X2	Y2	Z2	X3	Y3	Z3	X4	Y4	Z4	X5	Y5	Z5	X6	Y6	Z6	X7	Y7	Z7	X8	Y8	Z8	X9	Y9	Z9	X10	Y10	Z10	X11	Y11	Z11	X12	Y12	Z12	X13	Y13	Z13	X14	Y14	Z14	X15	Y15	Z15	X16	Y16	Z16	X17	Y17	Z17	X18	Y18	Z18	X19	Y19	Z19	X20	Y20	Z20	X21	Y21	Z21	X22	Y22	Z22	X23	Y23	Z23	X24	Y24	Z24	X25	Y25	Z25	X26	Y26	Z26	X27	Y27	Z27	X28	Y28	Z28	X29	Y29	Z29	X30	Y30	Z30	X31	Y31	Z31	X32	Y32	Z32	X33	Y33	Z33	X34	Y34	Z34	X35	Y35	Z35	X36	Y36	Z36	X37	Y37	Z37	X38	Y38	Z38	X39	Y39	Z39	X40	Y40	Z40	X41	Y41	Z41	X42	Y42	Z42	

47	0.230	353.50632	918.44580	973.52161	603.68982	916.03003	990.84326	416.79428	696.06415	1008.07983	542.93286	687.58136	1012.94922	335.07343	919.74835	681.29413	324.43784	897.49036	649.41791	370.88736	897.81995	601.67932	354.56393	909.51636	637.65991	442.73453	829.27789	508.67465	318.94897	800.92920	520.77325	288.96906	770.27924	428.45529	286.34866	760.38171	344.67981	300.97708	812.83374	341.22235	296.91214	805.60852	381.10181	383.22073	797.91382	121.37106	298.19135	774.48254	116.27628	338.75339	705.32520	52.40498	354.93704	1008.81201	46.18111	384.60986	920.38934	48.09081	262.90668	902.08386	40.32363	608.93530	917.94794	705.30627	598.55621	899.62463	642.65723	642.66766	861.30078	623.92706	650.07227	880.33636	678.64075	520.17157	829.28577	507.55542	646.23987	803.77704	531.19415	661.53387	815.40771	418.52856	652.54694	827.09772	381.37567	646.51447	831.71960	330.92734	678.64160	788.25433	335.23083	583.89417	799.67548	122.92719	671.30023	771.24377	113.51707	625.30200	700.59265	57.21627	617.57074	1003.98041	42.21763	587.06555	911.15320	42.07534	708.62939	891.56256	43.79615	449.23187	726.65436	1498.46899	455.13638	695.39819	1242.31494	287.81479	795.69257	1478.17102	609.58380	778.26068	1491.06787	459.87665	889.31232	1455.44775	571.76349	680.54883	1396.86487 
48	0.235	353.44690	918.48376	973.54376	603.65430	916.05237	990.83685	416.77249	696.10168	1008.08380	542.86157	687.62616	1012.94373	335.11096	919.79218	681.25293	324.42697	897.49927	649.42737	370.78955	897.80676	601.74286	354.45850	909.54993	637.68854	442.72833	829.32202	508.69489	318.87067	800.94269	520.76984	288.98645	770.33527	428.50168	286.35898	760.37579	344.67566	300.88174	812.84534	341.24237	296.88586	805.60651	381.08102	383.24261	797.87213	121.35423	298.20795	774.47028	116.26956	338.76392	705.32062	52.40236	354.92334	1008.85040	46.19184	384.61636	920.36230	48.08869	262.91705	902.09235	40.32016	608.87781	917.91846	705.25415	598.50970	899.65381	642.66925	642.61847	861.31537	623.89496	650.01691	880.28674	678.63434	520.13629	829.29712	507.51080	646.21442	803.77240	531.20508	661.50012	815.41272	418.53528	652.51544	827.08917	381.39883	646.54126	831.72333	330.91971	678.60773	788.24695	335.25165	583.89697	799.67377	122.92509	671.29297	771.26093	113.54485	625.29498	700.57214	57.23689	617.61060	1004.12305	42.38163	587.07043	911.15100	42.07364	708.61517	891.57782	43.82375	449.20895	726.67059	1498.49548	455.10889	695.46155	1242.30518	287.79449	795.71692	1478.17358	609.54852	778.28723	1491.10535	459.81714	889.35852	1455.42700	571.74506	680.57751	1396.87781 
49	0.240	353.39249	918.49426	973.50018	603.57642	916.07666	990.84747	416.72888	696.11786	1008.05133	542.81079	687.64502	1012.94147	335.04788	919.87598	681.29651	324.36179	897.52704	649.41797	370.73880	897.81885	601.73236	354.39899	909.57855	637.67554	442.63745	829.40631	508.69467	318.91769	800.99194	520.75568	288.92484	770.29285	428.43372	286.29489	760.35229	344.63123	300.90097	812.90820	341.28790	296.85367	805.67041	381.13522	383.24106	797.95050	121.37787	298.17639	774.48431	116.27590	338.77991	705.34949	52.38017	354.87262	1008.82184	46.17755	384.63803	920.35663	48.08667	262.89108	902.10071	40.28904	608.84644	917.92804	705.30170	598.47601	899.63513	642.67310	642.55298	861.27527	623.90302	650.01477	880.32050	678.63116	520.13226	829.42535	507.50262	646.19452	803.79974	531.20288	661.47113	815.40021	418.52280	652.52258	827.11481	381.39462	646.50433	831.72418	330.98758	678.58136	788.24670	335.22272	583.86621	799.72723	122.93891	671.27576	771.26947	113.54452	625.29517	700.57703	57.23751	617.57184	1003.97070	42.18988	587.07416	911.15955	42.04908	708.61139	891.55786	43.79665	449.20596	726.69165	1498.49487	455.11090	695.46252	1242.35608	287.75635	795.71429	1478.16675	609.51782	778.28540	1491.09937	459.70807	889.33649	1455.44177	571.67346	680.56891	1396.89807 
50	0.245	353.33572	918.47156	973.48492	603.56903	916.06415	990.84637	416.68436	696.11810	1008.03809	542.73602	687.63226	1012.92883	334.91296	919.34808	681.38110	324.29010	897.59851	649.43921	370.68057	897.83173	601.70520	354.29126	909.58759	637.69299	442.64215	829.42804	508.71918	318.87595	801.02222	520.74542	288.91016	770.29321	428.45966	286.29089	760.32629	344.62787	300.85910	812.89337	341.25098	296.78879	805.59729	381.09467	383.22076	797.93591	121.35439	298.17813	774.47046	116.25003	338.77100	705.34235	52.34104	354.90894	1008.82721	46.16183	384.63495	920.38708	48.09120	262.89926	902.06433	40.29395	608.83179	917.93298	705.26160	598.42786	899.62848	642.62109	642.49500	861.30243	623.89606	649.96014	880.30560	678.61139	520.09882	829.41052	507.50058	646.14716	803.79205	531.19830	661.43115	815.42297	418.52063	652.47986	827.10419	381.40134	646.49121	831.75323	330.97171	678.39484	788.27405	335.10196	583.83429	799.71295	122.95556	671.26831	771.26538	113.55836	625.29559	700.56177	57.21855	617.55585	1004.13660	42.35846	587.06543	911.13184	42.00412	708.59448	891.55273	43.79595	449.17566	726.68860	1498.47156	455.05261	695.53186	1242.34253	287.71518	795.72644	1478.16663	609.47314	778.30450	1491.15625	459.70084	889.31500	1455.42029	571.70343	680.60303	1396.91077 
51	0.250	353.25061	918.49194	973.49310	603.54718	916.06519	990.81079	416.65775	696.14044	1008.00433	542.70520	687.65918	1012.93597	334.84384	919.37860	681.39185	324.21509	897.55023	649.40979	370.59592	897.85358	601.73022	354.23953	909.61859	637.64032	442.58572	829.46826	508.69925	318.88220	801.02222	520.73975	288.88040	770.41449	428.48438	286.26254	760.43945	344.67203	300.78870	812.88641	341.22137	296.74384	805.63184	381.09784	383.17865	797.92084	121.32616	298.13858	774.48395	116.22724	338.77850	705.36407	52.32956	354.82874	1008.83258	46.12248	384.61050	920.38477	48.06122	262.83765	902.08325	40.28325	608.79108	917.90656	705.31482	598.42053	899.61847	642.63110	642.49774	861.26587	623.88806	649.92255	880.29968	678.60126	520.02350	829.31702	507.45215	646.11963	803.80713	531.20917	661.41498	815.41974	418.53854	652.47919	827.11853	381.40866	646.47223	831.75940	330.94440	678.51245	788.31891	335.19452	583.82867	799.78149	122.93922	671.27649	771.27545	113.57307	625.28918	700.56305	57.24508	617.55524	1004.14685	42.32961	587.01166	911.08344	41.99382	708.59436	891.55280	43.79623	449.14368	726.67554	1498.48755	455.05038	695.52686	1242.31934	287.69604	795.71741	1478.15039	609.41663	778.35089	1491.15295	459.66287	889.34558	1455.38367	571.64178	680.62427	1396.89099 
52	0.255	353.26041	918.51868	973.49066	603.52008	916.08606	990.83191	416.58246	696.18121	1008.00317	542.67194	687.65149	1012.92041	334.80615	919.40015	681.37671	324.16849	897.61444	649.42041	370.53195	897.83850	601.68433	354.19357	909.63617	637.63647	442.56290	829.44379	508.66843	318.82468	801.06396	520.74463	288.87723	770.32800	428.47067	286.27576	760.35315	344.62943	300.76126	812.81793	341.16104	296.78000	805.64935	381.07718	383.19244	797.91895	121.33225	298.17612	774.43451	116.20919	338.79636	705.34882	52.30496	354.87140	1008.81781	46.12890	384.60812	920.38275	48.06360	262.86224	902.01733	40.26253	608.78033	917.90009	705.33679	598.39545	899.62170	642.60834	642.45917	861.28607	623.86700	649.87897	880.32227	678.61462	520.04346	829.43927	507.45547	646.12030	803.80859	531.20856	661.36755	815.43353	418.51529	652.49304	827.12695	381.41367	646.49200	831.77307	330.94742	678.33228	788.27472	335.10599	583.84369	799.70093	122.91772	671.29535	771.28339	113.54227	625.28015	700.57196	57.22834	617.46820	1003.91095	42.12442	587.08472	911.17450	42.00295	708.60345	891.57300	43.78971	449.10947	726.69598	1498.46423	455.02396	695.52972	1242.33691	287.64172	795.72510	1478.17041	609.38477	778.34174	1491.13721	459.57745	889.34143	1455.40344	571.61066	680.59290	1396.92603 
53	0.260	353.25232	918.51990	973.48926	603.47211	916.09296	990.80365	416.57642	696.19006	1008.02716	542.64636	687.67688	1012.92163	334.81036	919.40161	681.36896	324.15002	897.61084	649.36548	370.52597	897.89661	601.70386	354.15375	909.65607	637.65649	442.54822	829.52002	508.70850	318.79803	801.06372	520.74548	288.86722	770.33307	428.48651	286.23349	760.40802	344.62216	300.71146	812.89484	341.21115	296.72253	805.66040	381.06879	383.21371	797.89252	121.33652	298.12784	774.49957	116.18574	338.78531	705.36334	52.32942	354.86743	1008.81061	46.10987	384.63388	920.35229	48.05888	262.86420	902.00964	40.26329	608.78784	917.91278	705.37488	598.40143	899.62500	642.61066	642.46582	861.28174	623.88599	649.83948	880.32666	678.61182	520.02795	829.45831	507.45102	646.11957	803.80682	531.20898	661.33569	815.41327	418.53036	652.41809	827.12274	381.40308	646.44812	831.75507	330.93265	678.34454	788.32220	335.11414	583.84430	799.72406	122.93810	671.28613	771.26556	113.57501	625.29065	700.55768	57.20857	617.59570	1004.13110	42.34364	587.02386	911.11267	42.01785	708.60303	891.57599	43.78847	449.10843	726.69727	1498.46545	455.02289	695.53253	1242.33801	287.63339	795.73199	1478.19031	609.33954	778.32788	1491.17358	459.62952	889.36847	1455.42273	571.60980	680.63708	1396.92419 
54	0.265	353.22949	918.55310	973.50159	603.43896	916.13196	990.82336	416.52713	696.21179	1008.03931	542.61194	687.67725	1012.91443	334.80814	919.36957	681.34601	324.11389	897.69702	649.45227	370.51041	897.90973	601.67828	354.12170	909.70850	637.66089	442.51163	829.57709	508.71078	318.77692	801.08691	520.74854	288.82193	770.36603	428.46716	286.25266	760.42590	344.65955	300.72244	812.91034	341.20377	296.71091	805.66992	381.07892	383.19421	797.93036	121.35745	298.16541	774.45532	116.21615	338.77887	705.34967	52.33601	354.85089	1008.82281	46.11582	384.61292	920.37372	48.07743	262.88351	902.03314	40.24426	608.80811	917.93390	705.33252	598.39905	899.63385	642.64655	642.48163	861.27039	623.90308	649.84766	880.30005	678.61273	519.99542	829.48669	507.48776	646.05359	803.82806	531.20142	661.33008	815.41656	418.53381	652.38574	827.10614	381.40173	646.46234	831.79041	330.96548	678.32001	788.27075	335.12042	583.84930	799.72876	122.93882	671.28809	771.28961	113.57300	625.28137	700.56421	57.23153	617.58136	1004.10504	42.33203	587.01978	911.10876	42.01639	708.61658	891.58032	43.80467	449.11356	726.71863	1498.46216	454.95062	695.59534	1242.33557	287.56653	795.72626	1478.19873	609.32281	778.34607	1491.16077	459.62964	889.39069	1455.45142	571.57684	680.59277	1396.93103 
55	0.270	353.19250	918.63660	973.49744	603.39496	916.09686	990.83557	416.50070	696.19958	1008.01257	542.55334	687.72113	1012.93329	334.76605	919.42780	681.31195	324.11206	897.69391	649.41693	370.45880	897.94635	601.72369	354.10760	909.73706	637.67078	442.49106	829.52832	508.72565	318.75797	801.08331	520.74951	288.86786	770.34747	428.50504	286.20993	760.43286	344.67136	300.73160	812.92297	341.22543	296.69919	805.67078	381.06894	383.20093	797.86902	121.35323	298.15341	774.48199	116.24114	338.73346	705.29767	52.37941	354.83316	1008.78833	46.10157	384.61700	920.39008	48.09019	262.83734	902.02710	40.27436	608.74677	917.99890	705.34155	598.36890	899.66608	642.63049	642.49084	861.28839	623.91431	649.87183	880.30469	678.61798	519.99451	829.48621	507.48694	646.04895	803.82513	531.21417	661.31836	815.40497	418.55063	652.42133	827.15857	381.42078	646.48145	831.68396	330.96735	678.48090	788.32629	335.22598	583.84900	799.72839	122.93690	671.26819	771.27069	113.55291	625.28320	700.55182	57.21858	617.57880	1004.13995	42.34339	587.10101	911.17603	42.01336	708.63562	891.58228	43.80719	449.02423	726.72333	1498.49390	454.92126	695.51654	1242.34338	287.56757	795.75677	1478.22168	609.26489	778.36102	1491.16089	459.53592	889.38019	1455.42627	571.52448	680.63470	1396.93701 
